<mxfile host="65bd71144e">
    <diagram id="Uz5xF0Y0VlqYDHiW82lS" name="Page-1">
        <mxGraphModel dx="276" dy="706" grid="1" gridSize="10" guides="1" tooltips="1" connect="1" arrows="1" fold="1" page="1" pageScale="1" pageWidth="850" pageHeight="1100" math="0" shadow="0">
            <root>
                <mxCell id="0"/>
                <mxCell id="1" parent="0"/>
                <mxCell id="2" value="&lt;ol class=&quot;latin&quot; id=&quot;ZVLHJD4BN6UJK7S3J532&quot; style=&quot;box-sizing: border-box; line-height: 1.8; color: rgb(87, 87, 87); padding: 0px 0px 0px 40px; clear: left; margin: 6px 0px; list-style-type: lower-latin; font-size: 16px; font-style: normal; font-weight: 400; letter-spacing: normal; text-align: left; text-indent: 0px; text-transform: none; word-spacing: 0px; background-color: rgb(255, 255, 255);&quot;&gt;&lt;li id=&quot;FVSYKN7028VQ11F0Q734&quot; style=&quot;box-sizing: border-box ; font-family: , &amp;quot;cambria&amp;quot; , &amp;quot;times new roman&amp;quot; , &amp;quot;times&amp;quot; , serif ; line-height: 1.6 ; color: rgb(87 , 87 , 87) ; margin: 0px 0px 10px ; padding: 0px ; list-style: lower-latin&quot;&gt;&lt;p id=&quot;RFHZTXHUUHUAZ1WXX011&quot; style=&quot;box-sizing: border-box ; font-family: , &amp;quot;cambria&amp;quot; , &amp;quot;times new roman&amp;quot; , &amp;quot;times&amp;quot; , serif ; line-height: 1.6 ; color: rgb(87 , 87 , 87) ; margin: 0px ; padding: 0px&quot;&gt;Computer games often contain different characters or creatures. For example, you might design a game in which alien beings possess specific characteristics such as color, number of eyes, or number of lives. Create an&lt;span&gt;&amp;nbsp;&lt;/span&gt;&lt;span class=&quot;monofont&quot; style=&quot;box-sizing: border-box ; font-family: &amp;quot;andale mono&amp;quot; , &amp;quot;courier new&amp;quot; , &amp;quot;courier&amp;quot; ; font-size: 15.36px&quot;&gt;Alien&lt;/span&gt;&lt;span&gt;&amp;nbsp;&lt;/span&gt;class. Include at least three data fields of your choice. Include a constructor that requires a value for each data field and a method named&lt;span&gt;&amp;nbsp;&lt;/span&gt;&lt;span class=&quot;monofont&quot; style=&quot;box-sizing: border-box ; font-family: &amp;quot;andale mono&amp;quot; , &amp;quot;courier new&amp;quot; , &amp;quot;courier&amp;quot; ; font-size: 15.36px&quot;&gt;toString()&lt;/span&gt;&lt;span&gt;&amp;nbsp;&lt;/span&gt;that returns a string containing a complete description of the&lt;span&gt;&amp;nbsp;&lt;/span&gt;&lt;span class=&quot;monofont&quot; style=&quot;box-sizing: border-box ; font-family: &amp;quot;andale mono&amp;quot; , &amp;quot;courier new&amp;quot; , &amp;quot;courier&amp;quot; ; font-size: 15.36px&quot;&gt;Alien&lt;/span&gt;.&lt;/p&gt;&lt;/li&gt;&lt;li id=&quot;EYTMNT38F4W173XMM348&quot; style=&quot;box-sizing: border-box ; font-family: , &amp;quot;cambria&amp;quot; , &amp;quot;times new roman&amp;quot; , &amp;quot;times&amp;quot; , serif ; line-height: 1.6 ; color: rgb(87 , 87 , 87) ; margin: 0px 0px 10px ; padding: 0px ; list-style: lower-latin&quot;&gt;&lt;p id=&quot;BNTYUVX04J4BXEFJR475&quot; style=&quot;box-sizing: border-box ; font-family: , &amp;quot;cambria&amp;quot; , &amp;quot;times new roman&amp;quot; , &amp;quot;times&amp;quot; , serif ; line-height: 1.6 ; color: rgb(87 , 87 , 87) ; margin: 0px ; padding: 0px&quot;&gt;Create two classes—&lt;span class=&quot;monofont&quot; style=&quot;box-sizing: border-box ; font-family: &amp;quot;andale mono&amp;quot; , &amp;quot;courier new&amp;quot; , &amp;quot;courier&amp;quot; ; font-size: 15.36px&quot;&gt;Martian&lt;/span&gt;&lt;span&gt;&amp;nbsp;&lt;/span&gt;and&lt;span&gt;&amp;nbsp;&lt;/span&gt;&lt;span class=&quot;monofont&quot; style=&quot;box-sizing: border-box ; font-family: &amp;quot;andale mono&amp;quot; , &amp;quot;courier new&amp;quot; , &amp;quot;courier&amp;quot; ; font-size: 15.36px&quot;&gt;Jupiterian&lt;/span&gt;—that descend from&lt;span&gt;&amp;nbsp;&lt;/span&gt;&lt;span class=&quot;monofont&quot; style=&quot;box-sizing: border-box ; font-family: &amp;quot;andale mono&amp;quot; , &amp;quot;courier new&amp;quot; , &amp;quot;courier&amp;quot; ; font-size: 15.36px&quot;&gt;Alien&lt;/span&gt;. Supply each with a constructor that sets the&lt;span&gt;&amp;nbsp;&lt;/span&gt;&lt;span class=&quot;monofont&quot; style=&quot;box-sizing: border-box ; font-family: &amp;quot;andale mono&amp;quot; , &amp;quot;courier new&amp;quot; , &amp;quot;courier&amp;quot; ; font-size: 15.36px&quot;&gt;Alien&lt;/span&gt;&lt;span&gt;&amp;nbsp;&lt;/span&gt;data fields with values you choose. For example, you can decide that a&lt;span&gt;&amp;nbsp;&lt;/span&gt;&lt;span class=&quot;monofont&quot; style=&quot;box-sizing: border-box ; font-family: &amp;quot;andale mono&amp;quot; , &amp;quot;courier new&amp;quot; , &amp;quot;courier&amp;quot; ; font-size: 15.36px&quot;&gt;Martian&lt;/span&gt;&lt;span&gt;&amp;nbsp;&lt;/span&gt;has four eyes but a&lt;span&gt;&amp;nbsp;&lt;/span&gt;&lt;span class=&quot;monofont&quot; style=&quot;box-sizing: border-box ; font-family: &amp;quot;andale mono&amp;quot; , &amp;quot;courier new&amp;quot; , &amp;quot;courier&amp;quot; ; font-size: 15.36px&quot;&gt;Jupiterian&lt;/span&gt;&lt;span&gt;&amp;nbsp;&lt;/span&gt;has only two.&lt;/p&gt;&lt;/li&gt;&lt;li id=&quot;MGEHN1TTWA2G2Y6FY408&quot; style=&quot;box-sizing: border-box ; font-family: , &amp;quot;cambria&amp;quot; , &amp;quot;times new roman&amp;quot; , &amp;quot;times&amp;quot; , serif ; line-height: 1.6 ; color: rgb(87 , 87 , 87) ; margin: 0px 0px 10px ; padding: 0px ; list-style: lower-latin&quot;&gt;&lt;p id=&quot;PSSDTB2EUFM41R87Z846&quot; style=&quot;box-sizing: border-box ; font-family: , &amp;quot;cambria&amp;quot; , &amp;quot;times new roman&amp;quot; , &amp;quot;times&amp;quot; , serif ; line-height: 1.6 ; color: rgb(87 , 87 , 87) ; margin: 0px ; padding: 0px&quot;&gt;Create an application that instantiates one&lt;span&gt;&amp;nbsp;&lt;/span&gt;&lt;span class=&quot;monofont&quot; style=&quot;box-sizing: border-box ; font-family: &amp;quot;andale mono&amp;quot; , &amp;quot;courier new&amp;quot; , &amp;quot;courier&amp;quot; ; font-size: 15.36px&quot;&gt;Martian&lt;/span&gt;&lt;span&gt;&amp;nbsp;&lt;/span&gt;and one&lt;span&gt;&amp;nbsp;&lt;/span&gt;&lt;span class=&quot;monofont&quot; style=&quot;box-sizing: border-box ; font-family: &amp;quot;andale mono&amp;quot; , &amp;quot;courier new&amp;quot; , &amp;quot;courier&amp;quot; ; font-size: 15.36px&quot;&gt;Jupiterian&lt;/span&gt;. Call the&lt;span&gt;&amp;nbsp;&lt;/span&gt;&lt;span class=&quot;monofont&quot; style=&quot;box-sizing: border-box ; font-family: &amp;quot;andale mono&amp;quot; , &amp;quot;courier new&amp;quot; , &amp;quot;courier&amp;quot; ; font-size: 15.36px&quot;&gt;toString()&lt;/span&gt;&lt;span&gt;&amp;nbsp;&lt;/span&gt;method with each object and display the results.&lt;/p&gt;&lt;/li&gt;&lt;/ol&gt;" style="text;whiteSpace=wrap;html=1;" vertex="1" parent="1">
                    <mxGeometry x="70" y="120" width="550" height="440" as="geometry"/>
                </mxCell>
            </root>
        </mxGraphModel>
    </diagram>
</mxfile>